HIERARCHY
ROOT hip
{
  OFFSET 0 0 0
  CHANNELS 6 Xposition Yposition Zposition Zrotation Yrotation Xrotation
  JOINT abdomen
  {
    OFFSET 0 20.6881 -0.73152
    CHANNELS 3 Zrotation Xrotation Yrotation
    JOINT chest
    {
      OFFSET 0 11.7043 -0.48768
      CHANNELS 3 Zrotation Xrotation Yrotation
      JOINT neck
      {
        OFFSET 0 22.1894 -2.19456
        CHANNELS 3 Zrotation Xrotation Yrotation
        JOINT head
        {
          OFFSET -0.24384 7.07133 1.2192
          CHANNELS 3 Zrotation Xrotation Yrotation
          JOINT leftEye
          {
            OFFSET 4.14528 8.04674 8.04672
            CHANNELS 3 Zrotation Xrotation Yrotation
            End Site
            {
              OFFSET 1 0 0
            }
          }
          JOINT rightEye
          {
            OFFSET -3.6576 8.04674 8.04672
            CHANNELS 3 Zrotation Xrotation Yrotation
            End Site
            {
              OFFSET 1 0 0
            }
          }
        }
      }
      JOINT rCollar
      {
        OFFSET -2.68224 19.2634 -4.8768
        CHANNELS 3 Zrotation Xrotation Yrotation
        JOINT rShldr
        {
          OFFSET -8.77824 -1.95073 1.46304
          CHANNELS 3 Zrotation Xrotation Yrotation
          JOINT rForeArm
          {
            OFFSET -28.1742 -1.7115 0.48768
            CHANNELS 3 Zrotation Xrotation Yrotation
            JOINT rHand
            {
              OFFSET -22.5879 0.773209 7.07136
              CHANNELS 3 Zrotation Xrotation Yrotation
              JOINT rThumb1
              {
                OFFSET -1.2192 -0.487915 3.41376
                CHANNELS 3 Zrotation Xrotation Yrotation
                JOINT rThumb2
                {
                  OFFSET -3.37035 -0.52449 3.41376
                  CHANNELS 3 Zrotation Xrotation Yrotation
                  End Site
                  {
                    OFFSET -1.78271 -1.18214 1.43049
                  }
                }
              }
              JOINT rIndex1
              {
                OFFSET -7.75947 0.938293 5.60832
                CHANNELS 3 Zrotation Xrotation Yrotation
                JOINT rIndex2
                {
                  OFFSET -2.54057 -0.884171 1.56538
                  CHANNELS 3 Zrotation Xrotation Yrotation
                  End Site
                  {
                    OFFSET -1.62519 -0.234802 1.16502
                  }
                }
              }
              JOINT rMid1
              {
                OFFSET -8.24714 1.18213 3.41376
                CHANNELS 3 Zrotation Xrotation Yrotation
                JOINT rMid2
                {
                  OFFSET -3.10165 -0.590103 1.0647
                  CHANNELS 3 Zrotation Xrotation Yrotation
                  End Site
                  {
                    OFFSET -2.48547 -0.328903 0.83742
                  }
                }
              }
              JOINT rRing1
              {
                OFFSET -8.82822 0.546677 1.51678
                CHANNELS 3 Zrotation Xrotation Yrotation
                JOINT rRing2
                {
                  OFFSET -2.60934 -0.819778 -0.0198488
                  CHANNELS 3 Zrotation Xrotation Yrotation
                  End Site
                  {
                    OFFSET -2.33842 -0.294052 0.168128
                  }
                }
              }
              JOINT rPinky1
              {
                OFFSET -8.27202 -0.0477905 -0.4584
                CHANNELS 3 Zrotation Xrotation Yrotation
                JOINT rPinky2
                {
                  OFFSET -1.82734 -0.647385 -0.700984
                  CHANNELS 3 Zrotation Xrotation Yrotation
                  End Site
                  {
                    OFFSET -1.69225 -0.51767 -0.607171
                  }
                }
              }
            }
          }
        }
      }
      JOINT lCollar
      {
        OFFSET 2.68224 19.2634 -4.8768
        CHANNELS 3 Zrotation Xrotation Yrotation
        JOINT lShldr
        {
          OFFSET 8.77824 -1.95073 1.46304
          CHANNELS 3 Zrotation Xrotation Yrotation
          JOINT lForeArm
          {
            OFFSET 28.1742 -1.7115 0.48768
            CHANNELS 3 Zrotation Xrotation Yrotation
            JOINT lHand
            {
              OFFSET 22.5879 0.773209 7.07136
              CHANNELS 3 Zrotation Xrotation Yrotation
              JOINT lThumb1
              {
                OFFSET 1.2192 -0.487915 3.41376
                CHANNELS 3 Zrotation Xrotation Yrotation
                JOINT lThumb2
                {
                  OFFSET 3.37035 -0.52449 3.41376
                  CHANNELS 3 Zrotation Xrotation Yrotation
                  End Site
                  {
                    OFFSET 1.78271 -1.18214 1.43049
                  }
                }
              }
              JOINT lIndex1
              {
                OFFSET 7.75947 0.938293 5.60832
                CHANNELS 3 Zrotation Xrotation Yrotation
                JOINT lIndex2
                {
                  OFFSET 2.54057 -0.884171 1.56538
                  CHANNELS 3 Zrotation Xrotation Yrotation
                  End Site
                  {
                    OFFSET 1.62519 -0.234802 1.16502
                  }
                }
              }
              JOINT lMid1
              {
                OFFSET 8.24714 1.18213 3.41376
                CHANNELS 3 Zrotation Xrotation Yrotation
                JOINT lMid2
                {
                  OFFSET 3.10165 -0.590103 1.0647
                  CHANNELS 3 Zrotation Xrotation Yrotation
                  End Site
                  {
                    OFFSET 2.48547 -0.328903 0.83742
                  }
                }
              }
              JOINT lRing1
              {
                OFFSET 8.82822 0.546677 1.51678
                CHANNELS 3 Zrotation Xrotation Yrotation
                JOINT lRing2
                {
                  OFFSET 2.60934 -0.819778 -0.0198488
                  CHANNELS 3 Zrotation Xrotation Yrotation
                  End Site
                  {
                    OFFSET 2.33842 -0.294052 0.168128
                  }
                }
              }
              JOINT lPinky1
              {
                OFFSET 8.27202 -0.0477905 -0.4584
                CHANNELS 3 Zrotation Xrotation Yrotation
                JOINT lPinky2
                {
                  OFFSET 1.82734 -0.647385 -0.700984
                  CHANNELS 3 Zrotation Xrotation Yrotation
                  End Site
                  {
                    OFFSET 1.69225 -0.51767 -0.607171
                  }
                }
              }
            }
          }
        }
      }
    }
  }
  JOINT rButtock
  {
    OFFSET -8.77824 4.35084 1.2192
    CHANNELS 3 Zrotation Xrotation Yrotation
    JOINT rThigh
    {
      OFFSET 0 -1.70687 -2.19456
      CHANNELS 3 Zrotation Xrotation Yrotation
      JOINT rShin
      {
        OFFSET 0 -36.8199 0.73152
        CHANNELS 3 Zrotation Xrotation Yrotation
        JOINT rFoot
        {
          OFFSET 0.73152 -45.1104 -5.12064
          CHANNELS 3 Zrotation Xrotation Yrotation
          End Site
          {
            OFFSET -1.1221 -3.69964 12.103
          }
        }
      }
    }
  }
  JOINT lButtock
  {
    OFFSET 8.77824 4.35084 1.2192
    CHANNELS 3 Zrotation Xrotation Yrotation
    JOINT lThigh
    {
      OFFSET 0 -1.70687 -2.19456
      CHANNELS 3 Zrotation Xrotation Yrotation
      JOINT lShin
      {
        OFFSET 0 -36.8199 0.73152
        CHANNELS 3 Zrotation Xrotation Yrotation
        JOINT lFoot
        {
          OFFSET -0.73152 -45.1104 -5.12064
          CHANNELS 3 Zrotation Xrotation Yrotation
          End Site
          {
            OFFSET 1.1221 -3.69964 12.103
          }
        }
      }
    }
  }
}
MOTION
Frames:	6
Frame Time:	0.00833333
2.58889 83.236 -171.521 0.0 0.0 0.0 -1.70025 -0.00276347 -0.0463336 -0.46906 0.0019669 -0.0812269 -3.44976e-14 1.59028e-15 2.98177e-16 -1.03272e-13 9.54166e-15 8.41729e-16 -0.0 0.0 0.0 -0.0 0.0 0.0 -1.69984e-14 -8.23093e-17 2.48481e-16 -3.60306e-13 -1.64619e-15 3.18055e-15 -6.23001e-12 1.80854e-12 1.36764e-13 -7.13208e-11 -2.1634e-12 5.34333e-13 -1.68235e-10 -7.72237e-13 1.4885e-12 -2.90556e-10 -1.33583e-12 2.55876e-12 -1.68233e-10 -7.72477e-13 1.47578e-12 7.73091 5.47488 0.417314 -1.68236e-10 -7.72974e-13 1.48532e-12 2.90554 0.965183 0.102902 -1.68235e-10 -7.72676e-13 1.48214e-12 10.2786 0.731801 0.0259123 -1.68241e-10 -7.68899e-13 1.48532e-12 2.22167 -0.733487 -0.20892 -1.71937e-14 -8.0368e-17 4.96962e-17 -3.62693e-13 -1.758e-15 1.19271e-15 -6.23354e-12 -1.91688e-12 1.08139e-13 -7.13101e-11 1.56394e-12 5.62958e-13 -1.68217e-10 -7.68114e-13 1.4726e-12 -2.90486e-10 -1.32311e-12 2.5675e-12 -1.68221e-10 -7.69694e-13 1.4885e-12 -7.73091 5.47488 -0.417314 -1.68216e-10 -7.68402e-13 1.47896e-12 -2.90554 0.965183 -0.102902 -1.68224e-10 -7.67607e-13 1.48214e-12 -10.2786 0.731801 -0.0259123 -1.6821e-10 -7.65719e-13 1.4726e-12 -2.22167 -0.733487 0.20892 -2.03217e-16 0.0 -3.88251e-19 -0.814863 -1.92421 -0.00353907 -0.0089574 -2.0786 -0.0737997 -0.474938 3.99777 0.134818 2.03217e-16 0.0 3.88251e-19 -1.77319 -6.84763 0.16951 -0.00326924 6.83978 -0.0864583 0.5043 0.00291095 -0.0573091
0.519097 78.9561 -172.441 -4.395 -8.6254 1.263 1.64718 4.6644 -0.313487 0.242282 -2.55614 0.131428 -1.01506 -1.25663 -0.794783 1.58497 -3.46011 -1.03448 -0.0 0.0 0.0 -0.0 0.0 0.0 3.56459e-15 3.46924e-15 -1.81702e-16 22.5727 13.3507 -0.717467 -24.6001 -22.435 14.5427 0.0366229 -4.24772 -0.59107 -3.7374e-11 -3.29754e-10 -2.55391e-11 -6.36587e-11 -5.73413e-10 -4.33815e-11 -3.73722e-11 -3.29754e-10 -2.55544e-11 7.73091 5.47488 0.417314 -3.73753e-11 -3.29753e-10 -2.55422e-11 2.90554 0.965183 0.102902 -3.73711e-11 -3.29758e-10 -2.55447e-11 10.2786 0.731801 0.0259123 -3.73772e-11 -3.29751e-10 -2.55406e-11 2.22167 -0.733487 -0.20892 3.32244e-15 3.46868e-15 -3.79321e-16 -22.781 13.1021 3.7812 23.7577 -21.6222 -14.7387 -0.0884258 -6.61238 0.907208 -6.23018e-11 6.93141e-10 1.56615e-10 -1.10168e-10 1.18721e-09 2.7127e-10 -6.23044e-11 6.93142e-10 1.56627e-10 -7.73091 5.47488 -0.417314 -6.23007e-11 6.93145e-10 1.56618e-10 -2.90554 0.965183 -0.102902 -6.23099e-11 6.93144e-10 1.56619e-10 -10.2786 0.731801 -0.0259123 -6.22973e-11 6.93145e-10 1.56611e-10 -2.22167 -0.733487 0.20892 -2.03217e-16 0.0 -3.88251e-19 4.76299 -9.10054 1.48415 -0.0883909 13.8151 0.0703437 -0.948696 -2.61004 -3.47132 2.03217e-16 0.0 3.88251e-19 2.19137 -15.7329 1.67037 0.0155084 33.7477 -0.452695 -0.142478 7.65419 -3.13207
0.984628 78.2097 -170.252 -4.6301 -3.2799 3.1364 5.22437 9.61062 -0.624646 1.0284 -5.24305 0.35339 -2.1282 -2.58748 -1.62992 3.12042 -7.11198 -2.12762 -0.0 0.0 0.0 -0.0 0.0 0.0 2.74536e-14 4.33854e-15 -1.2424e-17 46.8585 27.4544 -1.68118 -35.3318 -40.7283 37.7528 -0.0209366 -8.72846 -1.22566 1.11371e-10 -3.56152e-10 -1.06004e-10 1.94837e-10 -6.1911e-10 -1.81556e-10 1.11372e-10 -3.56153e-10 -1.06022e-10 7.73091 5.47488 0.417314 1.1137e-10 -3.5615e-10 -1.06007e-10 2.90554 0.965183 0.102902 1.11377e-10 -3.56161e-10 -1.06008e-10 10.2786 0.731801 0.0259123 1.1137e-10 -3.56149e-10 -1.06004e-10 2.22167 -0.733487 -0.20892 2.71581e-14 4.33526e-15 -2.08103e-16 -48.919 26.7401 8.40564 34.3257 -39.2097 -37.5171 0.0515848 -13.5587 1.90202 7.56826e-11 1.67107e-09 3.78815e-10 1.24211e-10 2.86154e-09 6.56396e-10 7.56819e-11 1.67107e-09 3.78824e-10 -7.73091 5.47488 -0.417314 7.56846e-11 1.67108e-09 3.78816e-10 -2.90554 0.965183 -0.102902 7.56742e-11 1.67108e-09 3.78814e-10 -10.2786 0.731801 -0.0259123 7.5685e-11 1.67108e-09 3.78807e-10 -2.22167 -0.733487 0.20892 -2.03217e-16 0.0 -3.88251e-19 11.0932 -16.7927 3.18272 -0.275994 30.6673 0.249298 -2.35403 -9.5107 -7.36451 2.03217e-16 0.0 3.88251e-19 6.93876 -24.9504 3.45687 0.827005 62.192 -1.4664 0.100271 15.744 -6.58566
1.04771 77.7938 -167.872 -4.4628 -3.2476 3.1031 8.47612 13.9974 -0.870529 1.72233 -7.672 0.56137 -3.14992 -3.76697 -2.38894 4.37499 -10.3667 -3.14924 -0.0 0.0 0.0 -0.0 0.0 0.0 4.46907e-14 1.05723e-14 -1.04207e-15 68.9809 40.0231 -2.73518 -31.0733 -45.549 67.3478 -0.158651 -12.7377 -1.81297 2.24348e-10 -9.87718e-10 -7.95943e-11 3.90135e-10 -1.71757e-09 -1.35262e-10 2.24349e-10 -9.87718e-10 -7.96148e-11 7.73091 5.47488 0.417314 2.24347e-10 -9.87714e-10 -7.95972e-11 2.90554 0.965183 0.102902 2.24356e-10 -9.87729e-10 -7.95983e-11 10.2786 0.731801 0.0259123 2.2435e-10 -9.87716e-10 -7.95924e-11 2.22167 -0.733487 -0.20892 4.43546e-14 1.05668e-14 -1.23736e-15 -74.71 38.5226 14.1781 30.941 -43.912 -65.7059 0.396279 -19.8166 2.87383 1.49528e-10 2.08096e-09 4.66899e-10 2.5047e-10 3.56426e-09 8.08675e-10 1.49528e-10 2.08096e-09 4.66905e-10 -7.73091 5.47488 -0.417314 1.4953e-10 2.08097e-09 4.66897e-10 -2.90554 0.965183 -0.102902 1.49519e-10 2.08097e-09 4.66893e-10 -10.2786 0.731801 -0.0259123 1.49528e-10 2.08097e-09 4.66888e-10 -2.22167 -0.733487 0.20892 -2.03217e-16 0.0 -3.88251e-19 17.1227 -23.3888 4.79858 -0.562134 45.6016 0.503729 -4.44792 -15.5591 -11.0831 2.03217e-16 0.0 3.88251e-19 11.7683 -33.4063 5.37707 20.7816 87.3846 -21.4828 1.19102 22.6785 -9.9761
1.14371 77.4965 -165.456 -4.1117 -3.1798 3.2999 10.7997 16.9872 -0.927369 2.14763 -9.45634 0.730254 -3.86996 -4.57075 -2.9533 5.18914 -12.6407 -3.94991 -0.0 0.0 0.0 -0.0 0.0 0.0 4.52976e-14 3.02174e-14 -5.06901e-15 84.5493 48.7922 -3.36858 -27.8933 -40.9437 85.63 -0.307001 -15.5732 -2.24479 2.47906e-10 -3.1322e-09 2.14e-10 4.2744e-10 -5.44793e-09 3.72202e-10 2.47907e-10 -3.1322e-09 2.13978e-10 7.73091 5.47488 0.417314 2.47905e-10 -3.1322e-09 2.13997e-10 2.90554 0.965183 0.102902 2.47917e-10 -3.13221e-09 2.13996e-10 10.2786 0.731801 0.0259123 2.47908e-10 -3.1322e-09 2.14004e-10 2.22167 -0.733487 -0.20892 4.49537e-14 3.02106e-14 -5.26779e-15 -95.0944 46.2941 20.3672 28.1477 -39.5485 -83.1165 0.788601 -24.3723 3.65051 6.30243e-11 1.07075e-09 2.1969e-10 1.06427e-10 1.83793e-09 3.78835e-10 6.30255e-11 1.07076e-09 2.19694e-10 -7.73091 5.47488 -0.417314 6.30274e-11 1.07076e-09 2.19687e-10 -2.90554 0.965183 -0.102902 6.30157e-11 1.07076e-09 2.19682e-10 -10.2786 0.731801 -0.0259123 6.30243e-11 1.07076e-09 2.19678e-10 -2.22167 -0.733487 0.20892 -2.03217e-16 0.0 -3.88251e-19 21.4396 -27.3136 5.85252 -0.886207 55.7419 0.835145 -6.46872 -19.7356 -13.9521 2.03217e-16 0.0 3.88251e-19 15.6408 -40.0422 7.06902 174.963 74.7381 -175.643 2.41524 27.0015 -12.5069
1.20189 77.3508 -162.999 -3.9335 -3.0548 3.6045 11.8085 18.044 -0.76345 2.2058 -10.3652 0.830021 -4.13511 -4.86608 -3.23552 5.51105 -13.5637 -4.3958 -0.0 0.0 0.0 -0.0 0.0 0.0 1.7362e-14 8.03788e-14 -1.61132e-14 90.0102 52.2847 -2.63364 -27.7711 -38.1121 91.5803 -0.380661 -16.7545 -2.42951 1.30445e-10 -8.57743e-09 1.09418e-09 2.13619e-10 -1.49222e-08 1.89263e-09 1.30448e-10 -8.57742e-09 1.09416e-09 7.73091 5.47488 0.417314 1.30445e-10 -8.57742e-09 1.09418e-09 2.90554 0.965183 0.102902 1.30458e-10 -8.57742e-09 1.09418e-09 10.2786 0.731801 0.0259123 1.30445e-10 -8.57743e-09 1.09419e-09 2.22167 -0.733487 -0.20892 1.70608e-14 8.03726e-14 -1.63232e-14 -104.599 49.0974 24.6173 28.0629 -36.6567 -88.4808 1.01259 -26.5548 4.04672 -3.56339e-10 -2.85766e-09 -7.16525e-10 -5.986e-10 -4.87876e-09 -1.24781e-09 -3.56339e-10 -2.85765e-09 -7.16523e-10 -7.73091 5.47488 -0.417314 -3.56336e-10 -2.85765e-09 -7.16528e-10 -2.90554 0.965183 -0.102902 -3.56347e-10 -2.85765e-09 -7.16533e-10 -10.2786 0.731801 -0.0259123 -3.56338e-10 -2.85766e-09 -7.16535e-10 -2.22167 -0.733487 0.20892 -2.03217e-16 0.0 -3.88251e-19 22.8909 -27.5734 5.78085 -1.04257 59.2384 1.09964 -7.63152 -21.6218 -15.4601 2.03217e-16 0.0 3.88251e-19 17.5331 -44.358 7.98561 176.128 67.7058 -176.796 2.85735 28.0098 -13.3628
